<svg xmlns="http://www.w3.org/2000/svg" viewBox="0 0 1046.95 484.56"><defs><style>.cls-1{fill:#2d2d2d;}</style></defs><title>Artboard 3 copy 5</title><g id="Landscape_Stroked_W" data-name="Landscape Stroked W"><path class="cls-1" d="M641.76,247.92A46.55,46.55,0,0,0,611,204a66.23,66.23,0,0,0,1.23-12.71,66.8,66.8,0,0,0-121-39.12,35.48,35.48,0,0,0-55,40.41,47.17,47.17,0,0,0-31,44.08,46.59,46.59,0,0,0,30.93,44,68.62,68.62,0,0,0-1.22,12.71,66.63,66.63,0,0,0,120.81,38.85,35.43,35.43,0,0,0,55-40.27A47.18,47.18,0,0,0,641.76,247.92Zm-145-88.62a58.38,58.38,0,0,1,106.54,33,57.52,57.52,0,0,1-1.13,11.48L550,249.54l-51.76-23.6-10.11-21.57Zm-26.23-5.81a28,28,0,0,1,17,5.73l-7.77,40.33-35.47-8.37a28.07,28.07,0,0,1,26.26-37.69Zm-56.21,83.29a39.49,39.49,0,0,1,26.87-37.15l38.93,9.19,9.14,19.53-49.77,45A39.11,39.11,0,0,1,414.34,236.78ZM550.4,325.32a58.52,58.52,0,0,1-106.93-32.91,59.93,59.93,0,0,1,1.14-11.65l50.94-46,52,23.69,11.5,22Zm26,5.78a27.79,27.79,0,0,1-16.9-5.78l7.71-40.19,35.45,8.29A28.08,28.08,0,0,1,576.4,331.1ZM605.73,285l-39-9.12L556.35,256l51-44.71a39,39,0,0,1,25.22,36.48A39.48,39.48,0,0,1,605.73,285Z"/></g></svg>