<svg xmlns="http://www.w3.org/2000/svg" viewBox="0 0 1046.95 484.56"><defs><style>.cls-1{fill:#fff;}.cls-2{fill:#fed10a;}.cls-3{fill:#24bbb1;}.cls-4{fill:#ef5098;}.cls-5{fill:#17a8e0;}.cls-6{fill:#93c83e;}.cls-7{fill:#0779a1;}</style></defs><title>Artboard 3 copy 7</title><g id="Stacked_Color" data-name="Stacked Color"><path class="cls-1" d="M625,247.11a39.94,39.94,0,0,0-26.42-37.66,56.44,56.44,0,0,0,1.06-10.91A57.31,57.31,0,0,0,495.79,165a30.43,30.43,0,0,0-47.16,34.67A40.46,40.46,0,0,0,422,237.47a40,40,0,0,0,26.54,37.78,57.87,57.87,0,0,0-1.05,10.9,57.16,57.16,0,0,0,103.64,33.33,30.4,30.4,0,0,0,47.19-34.55A40.46,40.46,0,0,0,625,247.11"/><path class="cls-2" d="M501.79,228.27l44.41,20.24L591,209.25a49.45,49.45,0,0,0,1-9.84,50.08,50.08,0,0,0-91.4-28.32l-7.45,38.67Z"/><path class="cls-3" d="M455.82,275.29a50.92,50.92,0,0,0-1,10,50.2,50.2,0,0,0,91.73,28.23L554,275l-9.87-18.87L499.52,235.8Z"/><path class="cls-4" d="M455.54,198.44,486,205.63l6.67-34.6a24,24,0,0,0-37.1,27.41"/><path class="cls-5" d="M452.9,205.69a33.88,33.88,0,0,0-23,31.88,33.54,33.54,0,0,0,21.59,31.35l42.7-38.59-7.84-16.75Z"/><path class="cls-6" d="M554.38,313.52a23.9,23.9,0,0,0,38.48-19,24.23,24.23,0,0,0-1.45-8.35L561,279Z"/><path class="cls-7" d="M560.57,271.07,594,278.9A33.89,33.89,0,0,0,617.1,247a33.5,33.5,0,0,0-21.64-31.3l-43.78,38.35Z"/></g></svg>